<svg id="Layer_1" data-name="Layer 1" xmlns="http://www.w3.org/2000/svg" viewBox="0 0 431.5 431.5">
  <defs>
    <style>
      .cls-1 {
        fill: #070606;
        stroke: #fff;
        stroke-miterlimit: 10;
        stroke-width: 13px;
      }

      .cls-2 {
        fill: #fff;
      }
    </style>
  </defs>
  <title>6f8127a5-536a-495b-9913-ae4dff7c8b70</title>
  <circle class="cls-1" cx="215.75" cy="215.75" r="209.25"/>
  <g>
    <path class="cls-2" d="M258.064,123.617h-84.35a52.007,52.007,0,0,0-51.95,51.951v84.349a52.006,52.006,0,0,0,51.95,51.95h84.35a52.01,52.01,0,0,0,51.95-51.95V175.568a52.007,52.007,0,0,0-51.95-51.951Zm35.248,136.3a35.285,35.285,0,0,1-35.248,35.248h-84.35a35.285,35.285,0,0,1-35.248-35.248V175.568a35.286,35.286,0,0,1,35.248-35.249h84.35a35.286,35.286,0,0,1,35.248,35.249Zm0,0"/>
    <path class="cls-2" d="M215.889,169.239a48.506,48.506,0,1,0,48.509,48.5,48.56,48.56,0,0,0-48.509-48.5Zm0,80.3a31.8,31.8,0,1,1,31.807-31.8,31.839,31.839,0,0,1-31.807,31.8Zm0,0"/>
    <path class="cls-2" d="M266.432,155.076a12.242,12.242,0,1,0,8.66,3.583,12.286,12.286,0,0,0-8.66-3.583Zm0,0"/>
  </g>
</svg>
