<svg id="Layer_1" data-name="Layer 1" xmlns="http://www.w3.org/2000/svg" xmlns:xlink="http://www.w3.org/1999/xlink" viewBox="0 0 206 206">
  <defs>
    <style>
      .cls-1 {
        fill: none;
      }

      .cls-2 {
        stroke: #fff;
        stroke-miterlimit: 10;
        stroke-width: 7px;
      }

      .cls-3 {
        clip-path: url(#clip-path);
      }

      .cls-4 {
        fill: #fff;
      }
    </style>
    <clipPath id="clip-path">
      <rect class="cls-1" x="55" y="58.035" width="98" height="85.965"/>
    </clipPath>
  </defs>
  <title>d1e6cc0a-1129-4981-b035-25827e7ad8c4</title>
  <circle class="cls-2" cx="103" cy="103" r="99.5"/>
  <g class="cls-3">
    <path class="cls-4" d="M128.779,101.171c-3.764-1.593-3.764-1.593-2.818-5.526,1.547-6.417-1.366-10.58-7.973-10.555-3.564.012-7.126,1.044-10.65,1.8a52.709,52.709,0,0,0-5.757,1.956c.359-3.058.838-5.456.863-7.857.037-4.581-2.864-7.531-7.436-7.255a22.679,22.679,0,0,0-8.216,1.907c-13.718,6.453-23.926,16.576-29.98,30.511a24.77,24.77,0,0,0-1.8,10.362c.252,8.081,5.121,13.61,11.6,17.654,13.791,8.609,28.712,9.941,44.183,5.8,9.533-2.554,17.749-7.387,23.686-15.517,6.908-9.428,4.544-18.949-5.7-23.281Zm-9.545,21.54a25.532,25.532,0,0,1-11.191,8.8c-10.122,4.39-20.447,5.063-30.855,1.225a26.925,26.925,0,0,1-6.573-3.681c-7.461-5.554-8.274-14.55-2-21.433,5.637-6.2,12.987-9,21.058-10.193,1.956-.289,3.933-.338,5.637-.47,8.587.264,16.465,1.824,22.581,8.059,5.026,5.133,5.447,11.777,1.345,17.69ZM152.61,86.29c.1,2.711-1.044,4.3-3.141,4.461-2.183.157-3.623-1.44-3.743-4.163-.6-12.051-9.548-20.985-21.685-21.669-2.9-.157-4.378-1.428-4.255-3.635s1.787-3.38,4.568-3.236c15.615.826,27.69,12.916,28.255,28.243Zm-13.865-.24c.648,2.4-.215,4.148-2.217,4.7-2.039.565-3.73-.433-4.378-2.831a12.736,12.736,0,0,0-9.726-9.582c-1.98-.516-3.021-1.787-2.782-3.776.227-1.848,1.4-2.929,3.982-2.963a30.88,30.88,0,0,1,3.475,1.078A19.208,19.208,0,0,1,138.745,86.05Zm-40.75,36.612a13.607,13.607,0,0,1-15.207,3.107c-6.417-2.926-7.556-10.4-2.3-15.111A14.7,14.7,0,0,1,89.84,107a42.125,42.125,0,0,1,4.568,1.09c6.38,2.281,8.142,9.548,3.586,14.571Zm0,0"/>
  </g>
</svg>
