<svg id="Layer_1" data-name="Layer 1" xmlns="http://www.w3.org/2000/svg" viewBox="0 0 30.554 35.069">
  <defs>
    <style>
      .cls-1 {
        fill: #fff;
      }
    </style>
  </defs>
  <title>1d01b918-5ff6-43a8-8eee-ba9a3aa4e313</title>
  <g id="Artwork_979" data-name="Artwork 979">
    <path class="cls-1" d="M4.253.447A3.042,3.042,0,0,0,1.334.307L17.078,16.086l5.148-5.172ZM.306,1.767A3.2,3.2,0,0,0,0,3.137V32a3.084,3.084,0,0,0,.308,1.356L16.047,17.542ZM17.08,19,1.361,34.791a3.084,3.084,0,0,0,1.3.277,3.054,3.054,0,0,0,1.588-.428L22.23,24.158Zm11.991-4.1-.019-.012-4.991-2.906L18.53,17.54l5.536,5.547,5.006-2.918a3.083,3.083,0,0,0,0-5.27Zm0,0"/>
  </g>
</svg>
