<svg id="Layer_1" data-name="Layer 1" xmlns="http://www.w3.org/2000/svg" viewBox="0 0 28.355 34.843">
  <defs>
    <style>
      .cls-1 {
        fill: #fff;
      }
    </style>
  </defs>
  <title>1d545d2a-bae7-4ca4-9eef-bd2399ec62c9</title>
  <path class="cls-1" d="M23.683,18.529a7.917,7.917,0,0,1,3.772-6.643,8.112,8.112,0,0,0-6.388-3.453c-2.687-.283-5.294,1.607-6.663,1.607-1.4,0-3.5-1.58-5.776-1.534A8.505,8.505,0,0,0,1.47,12.872C-1.626,18.23.683,26.1,3.649,30.435c1.484,2.122,3.217,4.489,5.486,4.406,2.22-.09,3.049-1.414,5.728-1.414,2.654,0,3.433,1.414,5.747,1.36,2.383-.037,3.883-2.131,5.314-4.271a17.505,17.505,0,0,0,2.43-4.948,7.66,7.66,0,0,1-4.672-7.039ZM19.312,5.585A7.791,7.791,0,0,0,21.1,0a7.941,7.941,0,0,0-5.134,2.655,7.415,7.415,0,0,0-1.831,5.378,6.559,6.559,0,0,0,5.18-2.449Z"/>
</svg>
