<svg id="Layer_1" data-name="Layer 1" xmlns="http://www.w3.org/2000/svg" viewBox="0 0 142.169 204.956">
  <title>2072954d-d743-471b-8135-8f68b4ac5aac</title>
  <g>
    <circle cx="120.055" cy="18.475" r="18.475"/>
    <rect x="5.847" y="44.787" width="36.11" height="85.936" rx="17.455" ry="17.455"/>
    <rect x="53.714" y="44.787" width="37.229" height="78.378" rx="18.261" ry="18.261"/>
    <rect x="102.42" y="44.787" width="36.11" height="69.7" rx="17.985" ry="17.985"/>
    <path d="M59.592,61.863V95.453H53.863V93.208a5.967,5.967,0,0,0-5.723-6.153h-.531a5.967,5.967,0,0,0-5.723,6.153v2.245H37.2V61.863h4.687v.565a5.967,5.967,0,0,0,5.723,6.153h.531a5.967,5.967,0,0,0,5.723-6.153v-.565Z"/>
    <path d="M108.578,60.743V94.333H102.85V92.088a5.967,5.967,0,0,0-5.723-6.153h-.531a5.967,5.967,0,0,0-5.723,6.153v2.245H86.185V60.743h4.687v.565a5.967,5.967,0,0,0,5.723,6.153h.531a5.967,5.967,0,0,0,5.723-6.153v-.565Z"/>
    <path d="M63.651,138.333v50.746H52.486V160.371l-16.818,21.6h-1.74l-16.818-21.6v28.708H5.945V138.333h6.67L34.8,167.258l22.111-28.925Z"/>
    <g>
      <path d="M106.523,165.737v23.343H96.156V167.911c0-4.93-2.682-7.83-6.814-7.83a11.448,11.448,0,0,0-8.192,4.35v24.648H70.711V152.107h9.352l.508,7.25c2.754-4.5,7.684-8.119,13.049-8.119C101.521,151.238,106.523,156.964,106.523,165.737Z"/>
      <path d="M131.29,147.757v31.9h7.032v9.424H113.094v-9.424h7.032v-31.9h-7.032v-9.424h25.229v9.424Z"/>
    </g>
  </g>
</svg>
