<svg id="Layer_1" data-name="Layer 1" xmlns="http://www.w3.org/2000/svg" viewBox="0 0 431.5 431.5">
  <defs>
    <style>
      .cls-1 {
        fill: #070606;
        stroke: #fff;
        stroke-miterlimit: 10;
        stroke-width: 13px;
      }

      .cls-2 {
        fill: #fff;
      }
    </style>
  </defs>
  <title>a99601bd-cbcb-47a5-8f69-f3d23efa1612</title>
  <circle class="cls-1" cx="215.75" cy="215.75" r="209.25"/>
  <path class="cls-2" d="M279.994,126.091H149.005a24.163,24.163,0,0,0-24.163,24.163v130.99a24.163,24.163,0,0,0,24.163,24.163h64.6l.11-64.078H197.071a3.928,3.928,0,0,1-3.928-3.913l-.08-20.655a3.928,3.928,0,0,1,3.928-3.943h16.617V192.861c0-23.161,14.145-35.772,34.807-35.772h16.954a3.928,3.928,0,0,1,3.928,3.928v17.416a3.928,3.928,0,0,1-3.926,3.928l-10.4,0c-11.236,0-13.412,5.339-13.412,13.175v17.278h24.69a3.928,3.928,0,0,1,3.9,4.391L267.7,237.865a3.928,3.928,0,0,1-3.9,3.466H241.665l-.11,64.078H280a24.163,24.163,0,0,0,24.163-24.163V150.255A24.164,24.164,0,0,0,279.994,126.091Z"/>
</svg>
