<svg id="Layer_1" data-name="Layer 1" xmlns="http://www.w3.org/2000/svg" xmlns:xlink="http://www.w3.org/1999/xlink" viewBox="0 0 206 206">
  <defs>
    <style>
      .cls-1 {
        fill: none;
      }

      .cls-2 {
        stroke: #fff;
        stroke-miterlimit: 10;
        stroke-width: 7px;
      }

      .cls-3 {
        clip-path: url(#clip-path);
      }

      .cls-4 {
        fill: #fff;
      }
    </style>
    <clipPath id="clip-path">
      <rect class="cls-1" x="56" y="61" width="89.739" height="86"/>
    </clipPath>
  </defs>
  <title>7cdd7fbb-18d2-43ef-99ef-1d8af52b9891</title>
  <circle class="cls-2" cx="103" cy="103" r="99.5"/>
  <g class="cls-3">
    <path class="cls-4" d="M135.737,93.935a10.009,10.009,0,0,0-7.164,3.051c-6.749-4.741-15.85-7.792-25.935-8.118l5.239-23.952,16.68,3.8a7.485,7.485,0,0,0,7.411,7.527,7.622,7.622,0,1,0-6.674-11.019l-18.423-4.142a1.764,1.764,0,0,0-2.082,1.365L99.037,88.849a48.7,48.7,0,0,0-25.781,8.215A9.992,9.992,0,0,0,66,93.935c-10.515,0-13.959,14.316-4.331,19.211a21.838,21.838,0,0,0-.493,4.741c0,16.081,17.854,29.112,39.777,29.112,22.016,0,39.871-13.031,39.871-29.112a18.659,18.659,0,0,0-.583-4.82c9.434-4.913,5.96-19.126-4.5-19.133ZM76.943,114.163a7.462,7.462,0,1,1,7.507,7.527,7.535,7.535,0,0,1-7.507-7.527ZM117.471,132.1c-6.883,6.984-26.308,6.984-33.2,0a1.813,1.813,0,0,1,2.5-2.629c5.257,5.47,22.7,5.564,28.182,0a1.82,1.82,0,0,1,2.516,2.629Zm-.153-10.4a7.57,7.57,0,1,1,7.508-7.519,7.478,7.478,0,0,1-7.508,7.519Zm0,0"/>
  </g>
</svg>
