<svg id="Layer_1" data-name="Layer 1" xmlns="http://www.w3.org/2000/svg" viewBox="0 0 431.5 431.5">
  <defs>
    <style>
      .cls-1 {
        fill: #070606;
        stroke: #fff;
        stroke-miterlimit: 10;
        stroke-width: 13px;
      }

      .cls-2 {
        fill: #fff;
      }
    </style>
  </defs>
  <title>802559bb-32cf-4660-879f-5e89d9875434</title>
  <circle class="cls-1" cx="215.75" cy="215.75" r="209.25"/>
  <path class="cls-2" d="M175.495,303.927c81.891,0,126.673-67.844,126.673-126.673q0-2.891-.126-5.754a90.609,90.609,0,0,0,22.208-23.055,88.839,88.839,0,0,1-25.568,7.012,44.69,44.69,0,0,0,19.577-24.626,89.3,89.3,0,0,1-28.269,10.806,44.559,44.559,0,0,0-75.869,40.6,126.4,126.4,0,0,1-91.77-46.516,44.56,44.56,0,0,0,13.784,59.436,44.169,44.169,0,0,1-20.164-5.567c-.006.187-.006.369-.006.568a44.534,44.534,0,0,0,35.72,43.644,44.505,44.505,0,0,1-20.109.763,44.569,44.569,0,0,0,41.591,30.922,89.315,89.315,0,0,1-55.3,19.058,90.575,90.575,0,0,1-10.62-.618,126.023,126.023,0,0,0,68.246,20"/>
</svg>
