<svg width="500" height="500" viewBox="0 0 500 500" fill="none" xmlns="http://www.w3.org/2000/svg">
<circle cx="250" cy="250" r="250" fill="#070707"/>
<path d="M117.632 192.044H175.744V378.988H117.632V192.044ZM146.645 99C165.185 99 180.253 114.095 180.253 132.667C180.253 151.239 165.185 166.371 146.657 166.371C137.739 166.352 129.191 162.795 122.884 156.479C116.576 150.162 113.023 141.601 113 132.667C113 128.243 113.871 123.862 115.562 119.775C117.253 115.688 119.732 111.975 122.857 108.848C125.981 105.721 129.691 103.242 133.772 101.552C137.854 99.8625 142.228 98.9952 146.645 99ZM212.028 192.044H267.659V217.594H268.429C276.177 202.903 295.096 187.404 323.425 187.404C382.16 187.404 393 226.127 393 276.456V379H335.035V288.062C335.035 266.393 334.644 238.48 304.897 238.48C274.711 238.48 270.067 262.108 270.067 286.471V378.951H212.114V192.007L212.028 192.044Z" fill="white"/>
</svg>
