<svg width="174" height="47" viewBox="0 0 174 47" fill="none" xmlns="http://www.w3.org/2000/svg">
<rect width="174" height="47" rx="5" fill="black"/>
<path d="M40.5225 28V18.0469H43.7764C44.8564 18.0469 45.6676 18.2702 46.21 18.7168C46.7568 19.1634 47.0303 19.8242 47.0303 20.6992C47.0303 21.1641 46.8981 21.5765 46.6338 21.9365C46.3695 22.292 46.0094 22.5677 45.5537 22.7637C46.0915 22.9141 46.5153 23.2012 46.8252 23.625C47.1396 24.0443 47.2969 24.5456 47.2969 25.1289C47.2969 26.0221 47.0075 26.724 46.4287 27.2344C45.8499 27.7448 45.0319 28 43.9746 28H40.5225ZM41.835 23.3447V26.9268H44.002C44.6126 26.9268 45.0934 26.7695 45.4443 26.4551C45.7998 26.1361 45.9775 25.6986 45.9775 25.1426C45.9775 23.944 45.3258 23.3447 44.0225 23.3447H41.835ZM41.835 22.292H43.8174C44.3916 22.292 44.8496 22.1484 45.1914 21.8613C45.5378 21.5742 45.7109 21.1846 45.7109 20.6924C45.7109 20.1455 45.5514 19.749 45.2324 19.5029C44.9134 19.2523 44.4281 19.127 43.7764 19.127H41.835V22.292ZM50.5645 26.9268H55.2812V28H49.2451V18.0469H50.5645V26.9268ZM63.9834 23.3447C63.9834 24.32 63.8193 25.1722 63.4912 25.9014C63.1631 26.626 62.6982 27.1797 62.0967 27.5625C61.4951 27.9453 60.7933 28.1367 59.9912 28.1367C59.2074 28.1367 58.5124 27.9453 57.9062 27.5625C57.3001 27.1751 56.8285 26.626 56.4912 25.915C56.1585 25.1995 55.9876 24.3724 55.9785 23.4336V22.7158C55.9785 21.7588 56.1449 20.9134 56.4775 20.1797C56.8102 19.446 57.2796 18.8854 57.8857 18.498C58.4964 18.1061 59.1937 17.9102 59.9775 17.9102C60.7751 17.9102 61.4769 18.1038 62.083 18.4912C62.6937 18.874 63.1631 19.4323 63.4912 20.166C63.8193 20.8952 63.9834 21.7451 63.9834 22.7158V23.3447ZM62.6777 22.7021C62.6777 21.5218 62.4408 20.6172 61.9668 19.9883C61.4928 19.3548 60.8298 19.0381 59.9775 19.0381C59.1481 19.0381 58.4941 19.3548 58.0156 19.9883C57.5417 20.6172 57.2979 21.4922 57.2842 22.6133V23.3447C57.2842 24.4886 57.5234 25.3887 58.002 26.0449C58.485 26.6966 59.1481 27.0225 59.9912 27.0225C60.8389 27.0225 61.4951 26.7148 61.96 26.0996C62.4248 25.4798 62.6641 24.5934 62.6777 23.4404V22.7021ZM73.2734 24.8418C73.1504 25.8945 72.7607 26.708 72.1045 27.2822C71.4528 27.8519 70.5846 28.1367 69.5 28.1367C68.3242 28.1367 67.3809 27.7152 66.6699 26.8721C65.9635 26.029 65.6104 24.901 65.6104 23.4883V22.5312C65.6104 21.6061 65.7744 20.7926 66.1025 20.0908C66.4352 19.389 66.9046 18.8512 67.5107 18.4775C68.1169 18.0993 68.8187 17.9102 69.6162 17.9102C70.6735 17.9102 71.5212 18.2064 72.1592 18.7988C72.7972 19.3867 73.1686 20.2025 73.2734 21.2461H71.9541C71.8402 20.4531 71.5918 19.8789 71.209 19.5234C70.8307 19.168 70.2998 18.9902 69.6162 18.9902C68.7777 18.9902 68.1191 19.3001 67.6406 19.9199C67.1667 20.5397 66.9297 21.4215 66.9297 22.5654V23.5293C66.9297 24.6094 67.1553 25.4684 67.6064 26.1064C68.0576 26.7445 68.6888 27.0635 69.5 27.0635C70.2292 27.0635 70.7874 26.8994 71.1748 26.5713C71.5667 26.2386 71.8265 25.6621 71.9541 24.8418H73.2734ZM77.6006 23.3721L76.3838 24.6367V28H75.0713V18.0469H76.3838V22.9688L80.8066 18.0469H82.3926L78.4756 22.4424L82.7002 28H81.1279L77.6006 23.3721ZM85.5439 18.0469L88.7979 26.168L92.0518 18.0469H93.7539V28H92.4414V24.124L92.5645 19.9404L89.2969 28H88.292L85.0312 19.9609L85.1611 24.124V28H83.8486V18.0469H85.5439ZM101.69 25.4023H97.5205L96.584 28H95.2305L99.0312 18.0469H100.18L103.987 28H102.641L101.69 25.4023ZM97.917 24.3223H101.301L99.6055 19.667L97.917 24.3223ZM112.977 28H111.657L106.646 20.3301V28H105.327V18.0469H106.646L111.671 25.751V18.0469H112.977V28ZM116.716 28H115.403V18.0469H116.716V28ZM125.794 19.127H122.595V28H121.289V19.127H118.097V18.0469H125.794V19.127ZM130.415 23.0439L133.013 18.0469H134.503L131.071 24.2881V28H129.759V24.2881L126.327 18.0469H127.831L130.415 23.0439Z" fill="white"/>
</svg>