<svg width="174" height="47" viewBox="0 0 174 47" fill="none" xmlns="http://www.w3.org/2000/svg">
<rect width="174" height="47" rx="5" fill="black"/>
<path d="M71.3574 27V17.0469H74.6113C75.6914 17.0469 76.5026 17.2702 77.0449 17.7168C77.5918 18.1634 77.8652 18.8242 77.8652 19.6992C77.8652 20.1641 77.7331 20.5765 77.4688 20.9365C77.2044 21.292 76.8444 21.5677 76.3887 21.7637C76.9264 21.9141 77.3503 22.2012 77.6602 22.625C77.9746 23.0443 78.1318 23.5456 78.1318 24.1289C78.1318 25.0221 77.8424 25.724 77.2637 26.2344C76.6849 26.7448 75.8669 27 74.8096 27H71.3574ZM72.6699 22.3447V25.9268H74.8369C75.4476 25.9268 75.9284 25.7695 76.2793 25.4551C76.6348 25.1361 76.8125 24.6986 76.8125 24.1426C76.8125 22.944 76.1608 22.3447 74.8574 22.3447H72.6699ZM72.6699 21.292H74.6523C75.2266 21.292 75.6846 21.1484 76.0264 20.8613C76.3727 20.5742 76.5459 20.1846 76.5459 19.6924C76.5459 19.1455 76.3864 18.749 76.0674 18.5029C75.7484 18.2523 75.263 18.127 74.6113 18.127H72.6699V21.292ZM81.4883 27H80.1758V17.0469H81.4883V27ZM91.5439 27H90.2246V22.3994H85.207V27H83.8945V17.0469H85.207V21.3262H90.2246V17.0469H91.5439V27ZM100.882 17.0469V23.8145C100.877 24.7533 100.581 25.5212 99.9932 26.1182C99.4098 26.7152 98.6169 27.0501 97.6143 27.123L97.2656 27.1367C96.1764 27.1367 95.3083 26.8428 94.6611 26.2549C94.014 25.667 93.6859 24.8581 93.6768 23.8281V17.0469H94.9756V23.7871C94.9756 24.5072 95.1738 25.0677 95.5703 25.4688C95.9668 25.8652 96.5319 26.0635 97.2656 26.0635C98.0085 26.0635 98.5758 25.8652 98.9678 25.4688C99.3643 25.0723 99.5625 24.514 99.5625 23.7939V17.0469H100.882Z" fill="white"/>
</svg>