<svg width="174" height="47" viewBox="0 0 174 47" fill="none" xmlns="http://www.w3.org/2000/svg">
<rect width="174" height="47" rx="5" fill="black"/>
<path d="M40.584 17.0469L43.8379 25.168L47.0918 17.0469H48.7939V27H47.4814V23.124L47.6045 18.9404L44.3369 27H43.332L40.0713 18.9609L40.2012 23.124V27H38.8887V17.0469H40.584ZM55.4795 27C55.4066 26.8542 55.3473 26.5944 55.3018 26.2207C54.7139 26.8314 54.012 27.1367 53.1963 27.1367C52.4671 27.1367 51.8678 26.9316 51.3984 26.5215C50.9336 26.1068 50.7012 25.5827 50.7012 24.9492C50.7012 24.179 50.9928 23.582 51.5762 23.1582C52.1641 22.7298 52.9889 22.5156 54.0508 22.5156H55.2812V21.9346C55.2812 21.4925 55.1491 21.1416 54.8848 20.8818C54.6204 20.6175 54.2308 20.4854 53.7158 20.4854C53.2646 20.4854 52.8864 20.5993 52.5811 20.8271C52.2757 21.055 52.123 21.3307 52.123 21.6543H50.8516C50.8516 21.2852 50.9814 20.9297 51.2412 20.5879C51.5055 20.2415 51.861 19.9681 52.3076 19.7676C52.7588 19.5671 53.2533 19.4668 53.791 19.4668C54.6432 19.4668 55.3109 19.681 55.7939 20.1094C56.277 20.5332 56.5277 21.1188 56.5459 21.8662V25.2705C56.5459 25.9495 56.6325 26.4896 56.8057 26.8906V27H55.4795ZM53.3809 26.0361C53.7773 26.0361 54.1533 25.9336 54.5088 25.7285C54.8643 25.5234 55.1217 25.2568 55.2812 24.9287V23.4111H54.29C52.7406 23.4111 51.9658 23.8646 51.9658 24.7715C51.9658 25.168 52.098 25.4779 52.3623 25.7012C52.6266 25.9245 52.9661 26.0361 53.3809 26.0361ZM62.1035 20.7383C61.9121 20.7064 61.7048 20.6904 61.4814 20.6904C60.652 20.6904 60.0892 21.0436 59.793 21.75V27H58.5283V19.6035H59.7588L59.7793 20.458C60.194 19.7972 60.7819 19.4668 61.543 19.4668C61.7891 19.4668 61.9759 19.4987 62.1035 19.5625V20.7383ZM65.3369 23.5752L64.5439 24.4023V27H63.2793V16.5H64.5439V22.8506L65.2207 22.0371L67.5244 19.6035H69.0625L66.1846 22.6934L69.3975 27H67.9141L65.3369 23.5752ZM73.3008 27.1367C72.2982 27.1367 71.4824 26.8086 70.8535 26.1523C70.2246 25.4915 69.9102 24.6097 69.9102 23.5068V23.2744C69.9102 22.5407 70.0492 21.8867 70.3271 21.3125C70.6097 20.7337 71.0016 20.2826 71.5029 19.959C72.0088 19.6309 72.5557 19.4668 73.1436 19.4668C74.1051 19.4668 74.8525 19.7835 75.3857 20.417C75.9189 21.0505 76.1855 21.9574 76.1855 23.1377V23.6641H71.1748C71.193 24.3932 71.4049 24.9834 71.8105 25.4346C72.2207 25.8812 72.7402 26.1045 73.3691 26.1045C73.8158 26.1045 74.194 26.0133 74.5039 25.8311C74.8138 25.6488 75.085 25.4072 75.3174 25.1064L76.0898 25.708C75.4701 26.6605 74.5404 27.1367 73.3008 27.1367ZM73.1436 20.5059C72.6331 20.5059 72.2048 20.6927 71.8584 21.0664C71.512 21.4355 71.2979 21.9551 71.2158 22.625H74.9209V22.5293C74.8844 21.8867 74.7113 21.39 74.4014 21.0391C74.0915 20.6836 73.6722 20.5059 73.1436 20.5059ZM79.3711 17.8125V19.6035H80.752V20.5811H79.3711V25.168C79.3711 25.4642 79.4326 25.6875 79.5557 25.8379C79.6787 25.9837 79.8883 26.0566 80.1846 26.0566C80.3304 26.0566 80.5309 26.0293 80.7861 25.9746V27C80.4535 27.0911 80.1299 27.1367 79.8154 27.1367C79.2503 27.1367 78.8242 26.9658 78.5371 26.624C78.25 26.2822 78.1064 25.7969 78.1064 25.168V20.5811H76.7598V19.6035H78.1064V17.8125H79.3711ZM85.3662 22.5635C84.2406 22.2399 83.4202 21.8434 82.9053 21.374C82.3949 20.9001 82.1396 20.3167 82.1396 19.624C82.1396 18.8402 82.4518 18.193 83.0762 17.6826C83.7051 17.1676 84.5208 16.9102 85.5234 16.9102C86.207 16.9102 86.8154 17.0423 87.3486 17.3066C87.8864 17.571 88.3011 17.9355 88.5928 18.4004C88.889 18.8652 89.0371 19.3734 89.0371 19.9248H87.7178C87.7178 19.3232 87.5264 18.8516 87.1436 18.5098C86.7607 18.1634 86.2207 17.9902 85.5234 17.9902C84.8763 17.9902 84.3704 18.1338 84.0059 18.4209C83.6458 18.7035 83.4658 19.0977 83.4658 19.6035C83.4658 20.0091 83.6367 20.3532 83.9785 20.6357C84.3249 20.9137 84.9105 21.1689 85.7354 21.4014C86.5648 21.6338 87.2119 21.8913 87.6768 22.1738C88.1462 22.4518 88.4925 22.7777 88.7158 23.1514C88.9437 23.5251 89.0576 23.9648 89.0576 24.4707C89.0576 25.2773 88.7432 25.9245 88.1143 26.4121C87.4854 26.8952 86.6445 27.1367 85.5918 27.1367C84.9082 27.1367 84.2702 27.0068 83.6777 26.7471C83.0853 26.4827 82.6273 26.1227 82.3037 25.667C81.9847 25.2113 81.8252 24.694 81.8252 24.1152H83.1445C83.1445 24.7168 83.3656 25.193 83.8076 25.5439C84.2542 25.8903 84.849 26.0635 85.5918 26.0635C86.2845 26.0635 86.8154 25.9222 87.1846 25.6396C87.5537 25.3571 87.7383 24.972 87.7383 24.4844C87.7383 23.9967 87.5674 23.6208 87.2256 23.3564C86.8838 23.0876 86.264 22.8232 85.3662 22.5635ZM93.5146 26.1045C93.9658 26.1045 94.36 25.9678 94.6973 25.6943C95.0345 25.4209 95.2214 25.0791 95.2578 24.6689H96.4541C96.4313 25.0928 96.2855 25.4961 96.0166 25.8789C95.7477 26.2617 95.3877 26.5671 94.9365 26.7949C94.4899 27.0228 94.016 27.1367 93.5146 27.1367C92.5075 27.1367 91.7054 26.8018 91.1084 26.1318C90.516 25.4574 90.2197 24.5368 90.2197 23.3701V23.1582C90.2197 22.4382 90.3519 21.7979 90.6162 21.2373C90.8805 20.6768 91.2588 20.2415 91.751 19.9316C92.2477 19.6217 92.8333 19.4668 93.5078 19.4668C94.3372 19.4668 95.0254 19.7152 95.5723 20.2119C96.1237 20.7087 96.4176 21.3535 96.4541 22.1465H95.2578C95.2214 21.668 95.0391 21.276 94.7109 20.9707C94.3874 20.6608 93.9863 20.5059 93.5078 20.5059C92.8652 20.5059 92.3662 20.7383 92.0107 21.2031C91.6598 21.6634 91.4844 22.3311 91.4844 23.2061V23.4453C91.4844 24.2975 91.6598 24.9538 92.0107 25.4141C92.3617 25.8743 92.863 26.1045 93.5146 26.1045ZM101.451 20.7383C101.26 20.7064 101.052 20.6904 100.829 20.6904C99.9997 20.6904 99.4368 21.0436 99.1406 21.75V27H97.876V19.6035H99.1064L99.127 20.458C99.5417 19.7972 100.13 19.4668 100.891 19.4668C101.137 19.4668 101.324 19.4987 101.451 19.5625V20.7383ZM105.553 27.1367C104.55 27.1367 103.734 26.8086 103.105 26.1523C102.477 25.4915 102.162 24.6097 102.162 23.5068V23.2744C102.162 22.5407 102.301 21.8867 102.579 21.3125C102.862 20.7337 103.254 20.2826 103.755 19.959C104.261 19.6309 104.808 19.4668 105.396 19.4668C106.357 19.4668 107.104 19.7835 107.638 20.417C108.171 21.0505 108.438 21.9574 108.438 23.1377V23.6641H103.427C103.445 24.3932 103.657 24.9834 104.062 25.4346C104.473 25.8812 104.992 26.1045 105.621 26.1045C106.068 26.1045 106.446 26.0133 106.756 25.8311C107.066 25.6488 107.337 25.4072 107.569 25.1064L108.342 25.708C107.722 26.6605 106.792 27.1367 105.553 27.1367ZM105.396 20.5059C104.885 20.5059 104.457 20.6927 104.11 21.0664C103.764 21.4355 103.55 21.9551 103.468 22.625H107.173V22.5293C107.136 21.8867 106.963 21.39 106.653 21.0391C106.343 20.6836 105.924 20.5059 105.396 20.5059ZM112.977 27.1367C111.974 27.1367 111.158 26.8086 110.529 26.1523C109.9 25.4915 109.586 24.6097 109.586 23.5068V23.2744C109.586 22.5407 109.725 21.8867 110.003 21.3125C110.285 20.7337 110.677 20.2826 111.179 19.959C111.685 19.6309 112.231 19.4668 112.819 19.4668C113.781 19.4668 114.528 19.7835 115.062 20.417C115.595 21.0505 115.861 21.9574 115.861 23.1377V23.6641H110.851C110.869 24.3932 111.081 24.9834 111.486 25.4346C111.896 25.8812 112.416 26.1045 113.045 26.1045C113.492 26.1045 113.87 26.0133 114.18 25.8311C114.49 25.6488 114.761 25.4072 114.993 25.1064L115.766 25.708C115.146 26.6605 114.216 27.1367 112.977 27.1367ZM112.819 20.5059C112.309 20.5059 111.881 20.6927 111.534 21.0664C111.188 21.4355 110.974 21.9551 110.892 22.625H114.597V22.5293C114.56 21.8867 114.387 21.39 114.077 21.0391C113.767 20.6836 113.348 20.5059 112.819 20.5059ZM118.527 19.6035L118.568 20.5332C119.133 19.8223 119.872 19.4668 120.783 19.4668C122.346 19.4668 123.135 20.3486 123.148 22.1123V27H121.884V22.1055C121.879 21.5723 121.756 21.1781 121.515 20.9229C121.278 20.6676 120.906 20.54 120.4 20.54C119.99 20.54 119.63 20.6494 119.32 20.8682C119.01 21.0869 118.769 21.374 118.596 21.7295V27H117.331V19.6035H118.527ZM128.125 27.1367C127.122 27.1367 126.307 26.8086 125.678 26.1523C125.049 25.4915 124.734 24.6097 124.734 23.5068V23.2744C124.734 22.5407 124.873 21.8867 125.151 21.3125C125.434 20.7337 125.826 20.2826 126.327 19.959C126.833 19.6309 127.38 19.4668 127.968 19.4668C128.929 19.4668 129.677 19.7835 130.21 20.417C130.743 21.0505 131.01 21.9574 131.01 23.1377V23.6641H125.999C126.017 24.3932 126.229 24.9834 126.635 25.4346C127.045 25.8812 127.564 26.1045 128.193 26.1045C128.64 26.1045 129.018 26.0133 129.328 25.8311C129.638 25.6488 129.909 25.4072 130.142 25.1064L130.914 25.708C130.294 26.6605 129.365 27.1367 128.125 27.1367ZM127.968 20.5059C127.457 20.5059 127.029 20.6927 126.683 21.0664C126.336 21.4355 126.122 21.9551 126.04 22.625H129.745V22.5293C129.709 21.8867 129.535 21.39 129.226 21.0391C128.916 20.6836 128.496 20.5059 127.968 20.5059ZM136.055 20.7383C135.863 20.7064 135.656 20.6904 135.433 20.6904C134.603 20.6904 134.04 21.0436 133.744 21.75V27H132.479V19.6035H133.71L133.73 20.458C134.145 19.7972 134.733 19.4668 135.494 19.4668C135.74 19.4668 135.927 19.4987 136.055 19.5625V20.7383Z" fill="white"/>
</svg>