<svg width="174" height="47" viewBox="0 0 174 47" fill="none" xmlns="http://www.w3.org/2000/svg">
<rect width="174" height="47" rx="5" fill="black"/>
<path d="M34.6777 22V12.0469H37.9316C39.0117 12.0469 39.8229 12.2702 40.3652 12.7168C40.9121 13.1634 41.1855 13.8242 41.1855 14.6992C41.1855 15.1641 41.0534 15.5765 40.7891 15.9365C40.5247 16.292 40.1647 16.5677 39.709 16.7637C40.2467 16.9141 40.6706 17.2012 40.9805 17.625C41.2949 18.0443 41.4521 18.5456 41.4521 19.1289C41.4521 20.0221 41.1628 20.724 40.584 21.2344C40.0052 21.7448 39.1872 22 38.1299 22H34.6777ZM35.9902 17.3447V20.9268H38.1572C38.7679 20.9268 39.2487 20.7695 39.5996 20.4551C39.9551 20.1361 40.1328 19.6986 40.1328 19.1426C40.1328 17.944 39.4811 17.3447 38.1777 17.3447H35.9902ZM35.9902 16.292H37.9727C38.5469 16.292 39.0049 16.1484 39.3467 15.8613C39.693 15.5742 39.8662 15.1846 39.8662 14.6924C39.8662 14.1455 39.7067 13.749 39.3877 13.5029C39.0687 13.2523 38.5833 13.127 37.9316 13.127H35.9902V16.292ZM44.5762 22H43.3115V11.5H44.5762V22ZM46.2715 18.2334C46.2715 17.5088 46.4128 16.8571 46.6953 16.2783C46.9824 15.6995 47.3789 15.2529 47.8848 14.9385C48.3952 14.624 48.9762 14.4668 49.6279 14.4668C50.6351 14.4668 51.4486 14.8154 52.0684 15.5127C52.6927 16.21 53.0049 17.1374 53.0049 18.2949V18.3838C53.0049 19.1038 52.8659 19.751 52.5879 20.3252C52.3145 20.8949 51.9202 21.3392 51.4053 21.6582C50.8949 21.9772 50.307 22.1367 49.6416 22.1367C48.639 22.1367 47.8255 21.7881 47.2012 21.0908C46.5814 20.3936 46.2715 19.4707 46.2715 18.3223V18.2334ZM47.543 18.3838C47.543 19.2041 47.7321 19.8626 48.1104 20.3594C48.4932 20.8561 49.0036 21.1045 49.6416 21.1045C50.2842 21.1045 50.7946 20.8538 51.1729 20.3525C51.5511 19.8467 51.7402 19.1403 51.7402 18.2334C51.7402 17.4222 51.5465 16.766 51.1592 16.2646C50.7764 15.7588 50.266 15.5059 49.6279 15.5059C49.0036 15.5059 48.5 15.7542 48.1172 16.251C47.7344 16.7477 47.543 17.4587 47.543 18.3838ZM57.5576 21.1045C58.0088 21.1045 58.403 20.9678 58.7402 20.6943C59.0775 20.4209 59.2643 20.0791 59.3008 19.6689H60.4971C60.4743 20.0928 60.3285 20.4961 60.0596 20.8789C59.7907 21.2617 59.4307 21.5671 58.9795 21.7949C58.5329 22.0228 58.0589 22.1367 57.5576 22.1367C56.5505 22.1367 55.7484 21.8018 55.1514 21.1318C54.5589 20.4574 54.2627 19.5368 54.2627 18.3701V18.1582C54.2627 17.4382 54.3949 16.7979 54.6592 16.2373C54.9235 15.6768 55.3018 15.2415 55.7939 14.9316C56.2907 14.6217 56.8763 14.4668 57.5508 14.4668C58.3802 14.4668 59.0684 14.7152 59.6152 15.2119C60.1667 15.7087 60.4606 16.3535 60.4971 17.1465H59.3008C59.2643 16.668 59.082 16.276 58.7539 15.9707C58.4303 15.6608 58.0293 15.5059 57.5508 15.5059C56.9082 15.5059 56.4092 15.7383 56.0537 16.2031C55.7028 16.6634 55.5273 17.3311 55.5273 18.2061V18.4453C55.5273 19.2975 55.7028 19.9538 56.0537 20.4141C56.4046 20.8743 56.9059 21.1045 57.5576 21.1045ZM63.9834 18.5752L63.1904 19.4023V22H61.9258V11.5H63.1904V17.8506L63.8672 17.0371L66.1709 14.6035H67.709L64.8311 17.6934L68.0439 22H66.5605L63.9834 18.5752ZM71.8447 21.1045C72.2959 21.1045 72.6901 20.9678 73.0273 20.6943C73.3646 20.4209 73.5514 20.0791 73.5879 19.6689H74.7842C74.7614 20.0928 74.6156 20.4961 74.3467 20.8789C74.0778 21.2617 73.7178 21.5671 73.2666 21.7949C72.82 22.0228 72.346 22.1367 71.8447 22.1367C70.8376 22.1367 70.0355 21.8018 69.4385 21.1318C68.846 20.4574 68.5498 19.5368 68.5498 18.3701V18.1582C68.5498 17.4382 68.682 16.7979 68.9463 16.2373C69.2106 15.6768 69.5889 15.2415 70.0811 14.9316C70.5778 14.6217 71.1634 14.4668 71.8379 14.4668C72.6673 14.4668 73.3555 14.7152 73.9023 15.2119C74.4538 15.7087 74.7477 16.3535 74.7842 17.1465H73.5879C73.5514 16.668 73.3691 16.276 73.041 15.9707C72.7174 15.6608 72.3164 15.5059 71.8379 15.5059C71.1953 15.5059 70.6963 15.7383 70.3408 16.2031C69.9899 16.6634 69.8145 17.3311 69.8145 18.2061V18.4453C69.8145 19.2975 69.9899 19.9538 70.3408 20.4141C70.6917 20.8743 71.193 21.1045 71.8447 21.1045ZM77.4707 15.499C78.0312 14.8109 78.7604 14.4668 79.6582 14.4668C81.2214 14.4668 82.0098 15.3486 82.0234 17.1123V22H80.7588V17.1055C80.7542 16.5723 80.6312 16.1781 80.3896 15.9229C80.1527 15.6676 79.7812 15.54 79.2754 15.54C78.8652 15.54 78.5052 15.6494 78.1953 15.8682C77.8854 16.0869 77.6439 16.374 77.4707 16.7295V22H76.2061V11.5H77.4707V15.499ZM88.4834 22C88.4105 21.8542 88.3512 21.5944 88.3057 21.2207C87.7178 21.8314 87.016 22.1367 86.2002 22.1367C85.471 22.1367 84.8717 21.9316 84.4023 21.5215C83.9375 21.1068 83.7051 20.5827 83.7051 19.9492C83.7051 19.179 83.9967 18.582 84.5801 18.1582C85.168 17.7298 85.9928 17.5156 87.0547 17.5156H88.2852V16.9346C88.2852 16.4925 88.153 16.1416 87.8887 15.8818C87.6243 15.6175 87.2347 15.4854 86.7197 15.4854C86.2686 15.4854 85.8903 15.5993 85.585 15.8271C85.2796 16.055 85.127 16.3307 85.127 16.6543H83.8555C83.8555 16.2852 83.9854 15.9297 84.2451 15.5879C84.5094 15.2415 84.8649 14.9681 85.3115 14.7676C85.7627 14.5671 86.2572 14.4668 86.7949 14.4668C87.6471 14.4668 88.3148 14.681 88.7979 15.1094C89.2809 15.5332 89.5316 16.1188 89.5498 16.8662V20.2705C89.5498 20.9495 89.6364 21.4896 89.8096 21.8906V22H88.4834ZM86.3848 21.0361C86.7812 21.0361 87.1572 20.9336 87.5127 20.7285C87.8682 20.5234 88.1257 20.2568 88.2852 19.9287V18.4111H87.2939C85.7445 18.4111 84.9697 18.8646 84.9697 19.7715C84.9697 20.168 85.1019 20.4779 85.3662 20.7012C85.6305 20.9245 85.9701 21.0361 86.3848 21.0361ZM92.9062 22H91.6416V14.6035H92.9062V22ZM91.5391 12.6416C91.5391 12.4365 91.6006 12.2633 91.7236 12.1221C91.8512 11.9808 92.0381 11.9102 92.2842 11.9102C92.5303 11.9102 92.7171 11.9808 92.8447 12.1221C92.9723 12.2633 93.0361 12.4365 93.0361 12.6416C93.0361 12.8467 92.9723 13.0176 92.8447 13.1543C92.7171 13.291 92.5303 13.3594 92.2842 13.3594C92.0381 13.3594 91.8512 13.291 91.7236 13.1543C91.6006 13.0176 91.5391 12.8467 91.5391 12.6416ZM96.1328 14.6035L96.1738 15.5332C96.7389 14.8223 97.4772 14.4668 98.3887 14.4668C99.9518 14.4668 100.74 15.3486 100.754 17.1123V22H99.4893V17.1055C99.4847 16.5723 99.3617 16.1781 99.1201 15.9229C98.8831 15.6676 98.5117 15.54 98.0059 15.54C97.5957 15.54 97.2357 15.6494 96.9258 15.8682C96.6159 16.0869 96.3743 16.374 96.2012 16.7295V22H94.9365V14.6035H96.1328ZM107.645 18.1035V22H106.332V12.0469H110.003C111.092 12.0469 111.944 12.3249 112.56 12.8809C113.179 13.4368 113.489 14.1729 113.489 15.0889C113.489 16.055 113.186 16.8001 112.58 17.3242C111.979 17.8438 111.115 18.1035 109.989 18.1035H107.645ZM107.645 17.0303H110.003C110.705 17.0303 111.243 16.8662 111.616 16.5381C111.99 16.2054 112.177 15.7269 112.177 15.1025C112.177 14.5101 111.99 14.0361 111.616 13.6807C111.243 13.3252 110.73 13.1406 110.078 13.127H107.645V17.0303ZM118.541 15.7383C118.35 15.7064 118.142 15.6904 117.919 15.6904C117.09 15.6904 116.527 16.0436 116.23 16.75V22H114.966V14.6035H116.196L116.217 15.458C116.632 14.7972 117.219 14.4668 117.98 14.4668C118.227 14.4668 118.413 14.4987 118.541 14.5625V15.7383ZM122.643 22.1367C121.64 22.1367 120.824 21.8086 120.195 21.1523C119.566 20.4915 119.252 19.6097 119.252 18.5068V18.2744C119.252 17.5407 119.391 16.8867 119.669 16.3125C119.951 15.7337 120.343 15.2826 120.845 14.959C121.351 14.6309 121.897 14.4668 122.485 14.4668C123.447 14.4668 124.194 14.7835 124.728 15.417C125.261 16.0505 125.527 16.9574 125.527 18.1377V18.6641H120.517C120.535 19.3932 120.747 19.9834 121.152 20.4346C121.562 20.8812 122.082 21.1045 122.711 21.1045C123.158 21.1045 123.536 21.0133 123.846 20.8311C124.156 20.6488 124.427 20.4072 124.659 20.1064L125.432 20.708C124.812 21.6605 123.882 22.1367 122.643 22.1367ZM122.485 15.5059C121.975 15.5059 121.547 15.6927 121.2 16.0664C120.854 16.4355 120.64 16.9551 120.558 17.625H124.263V17.5293C124.226 16.8867 124.053 16.39 123.743 16.0391C123.433 15.6836 123.014 15.5059 122.485 15.5059ZM131.304 20.0381C131.304 19.6963 131.174 19.432 130.914 19.2451C130.659 19.0537 130.21 18.8896 129.567 18.7529C128.929 18.6162 128.421 18.4521 128.043 18.2607C127.669 18.0693 127.391 17.8415 127.209 17.5771C127.031 17.3128 126.942 16.9984 126.942 16.6338C126.942 16.0277 127.198 15.515 127.708 15.0957C128.223 14.6764 128.879 14.4668 129.677 14.4668C130.515 14.4668 131.194 14.6833 131.714 15.1162C132.238 15.5492 132.5 16.1029 132.5 16.7773H131.229C131.229 16.431 131.08 16.1325 130.784 15.8818C130.493 15.6312 130.123 15.5059 129.677 15.5059C129.216 15.5059 128.856 15.6061 128.597 15.8066C128.337 16.0072 128.207 16.2692 128.207 16.5928C128.207 16.8981 128.328 17.1283 128.569 17.2832C128.811 17.4382 129.246 17.5863 129.875 17.7275C130.508 17.8688 131.021 18.0374 131.413 18.2334C131.805 18.4294 132.094 18.6663 132.281 18.9443C132.473 19.2178 132.568 19.5527 132.568 19.9492C132.568 20.61 132.304 21.141 131.775 21.542C131.247 21.9385 130.561 22.1367 129.718 22.1367C129.125 22.1367 128.601 22.0319 128.146 21.8223C127.69 21.6126 127.332 21.321 127.072 20.9473C126.817 20.569 126.689 20.1611 126.689 19.7236H127.954C127.977 20.1475 128.146 20.4847 128.46 20.7354C128.779 20.9814 129.198 21.1045 129.718 21.1045C130.196 21.1045 130.579 21.0088 130.866 20.8174C131.158 20.6214 131.304 20.3617 131.304 20.0381ZM138.522 20.0381C138.522 19.6963 138.393 19.432 138.133 19.2451C137.878 19.0537 137.429 18.8896 136.786 18.7529C136.148 18.6162 135.64 18.4521 135.262 18.2607C134.888 18.0693 134.61 17.8415 134.428 17.5771C134.25 17.3128 134.161 16.9984 134.161 16.6338C134.161 16.0277 134.416 15.515 134.927 15.0957C135.442 14.6764 136.098 14.4668 136.896 14.4668C137.734 14.4668 138.413 14.6833 138.933 15.1162C139.457 15.5492 139.719 16.1029 139.719 16.7773H138.447C138.447 16.431 138.299 16.1325 138.003 15.8818C137.711 15.6312 137.342 15.5059 136.896 15.5059C136.435 15.5059 136.075 15.6061 135.815 15.8066C135.556 16.0072 135.426 16.2692 135.426 16.5928C135.426 16.8981 135.547 17.1283 135.788 17.2832C136.03 17.4382 136.465 17.5863 137.094 17.7275C137.727 17.8688 138.24 18.0374 138.632 18.2334C139.024 18.4294 139.313 18.6663 139.5 18.9443C139.691 19.2178 139.787 19.5527 139.787 19.9492C139.787 20.61 139.523 21.141 138.994 21.542C138.465 21.9385 137.78 22.1367 136.937 22.1367C136.344 22.1367 135.82 22.0319 135.364 21.8223C134.909 21.6126 134.551 21.321 134.291 20.9473C134.036 20.569 133.908 20.1611 133.908 19.7236H135.173C135.196 20.1475 135.364 20.4847 135.679 20.7354C135.998 20.9814 136.417 21.1045 136.937 21.1045C137.415 21.1045 137.798 21.0088 138.085 20.8174C138.377 20.6214 138.522 20.3617 138.522 20.0381ZM67.2373 31.9736H64.8994V36H63.5801V26.0469H66.875C67.9961 26.0469 68.8574 26.3021 69.459 26.8125C70.0651 27.3229 70.3682 28.0658 70.3682 29.041C70.3682 29.6608 70.1995 30.2008 69.8623 30.6611C69.5296 31.1214 69.0648 31.4655 68.4678 31.6934L70.8057 35.918V36H69.3975L67.2373 31.9736ZM64.8994 30.9004H66.916C67.5677 30.9004 68.085 30.7318 68.4678 30.3945C68.8551 30.0573 69.0488 29.6061 69.0488 29.041C69.0488 28.4258 68.8643 27.9541 68.4951 27.626C68.1305 27.2979 67.6019 27.1315 66.9092 27.127H64.8994V30.9004ZM75.085 36.1367C74.0824 36.1367 73.2666 35.8086 72.6377 35.1523C72.0088 34.4915 71.6943 33.6097 71.6943 32.5068V32.2744C71.6943 31.5407 71.8333 30.8867 72.1113 30.3125C72.3939 29.7337 72.7858 29.2826 73.2871 28.959C73.793 28.6309 74.3398 28.4668 74.9277 28.4668C75.8893 28.4668 76.6367 28.7835 77.1699 29.417C77.7031 30.0505 77.9697 30.9574 77.9697 32.1377V32.6641H72.959C72.9772 33.3932 73.1891 33.9834 73.5947 34.4346C74.0049 34.8812 74.5244 35.1045 75.1533 35.1045C75.5999 35.1045 75.9782 35.0133 76.2881 34.8311C76.598 34.6488 76.8691 34.4072 77.1016 34.1064L77.874 34.708C77.2542 35.6605 76.3245 36.1367 75.085 36.1367ZM74.9277 29.5059C74.4173 29.5059 73.9889 29.6927 73.6426 30.0664C73.2962 30.4355 73.082 30.9551 73 31.625H76.7051V31.5293C76.6686 30.8867 76.4954 30.39 76.1855 30.0391C75.8757 29.6836 75.4564 29.5059 74.9277 29.5059ZM80.8135 36H79.5488V25.5H80.8135V36ZM85.9131 36.1367C84.9105 36.1367 84.0947 35.8086 83.4658 35.1523C82.8369 34.4915 82.5225 33.6097 82.5225 32.5068V32.2744C82.5225 31.5407 82.6615 30.8867 82.9395 30.3125C83.222 29.7337 83.6139 29.2826 84.1152 28.959C84.6211 28.6309 85.168 28.4668 85.7559 28.4668C86.7174 28.4668 87.4648 28.7835 87.998 29.417C88.5312 30.0505 88.7979 30.9574 88.7979 32.1377V32.6641H83.7871C83.8053 33.3932 84.0173 33.9834 84.4229 34.4346C84.833 34.8812 85.3525 35.1045 85.9814 35.1045C86.4281 35.1045 86.8063 35.0133 87.1162 34.8311C87.4261 34.6488 87.6973 34.4072 87.9297 34.1064L88.7021 34.708C88.0824 35.6605 87.1527 36.1367 85.9131 36.1367ZM85.7559 29.5059C85.2454 29.5059 84.8171 29.6927 84.4707 30.0664C84.1243 30.4355 83.9102 30.9551 83.8281 31.625H87.5332V31.5293C87.4967 30.8867 87.3236 30.39 87.0137 30.0391C86.7038 29.6836 86.2845 29.5059 85.7559 29.5059ZM94.834 36C94.7611 35.8542 94.7018 35.5944 94.6562 35.2207C94.0684 35.8314 93.3665 36.1367 92.5508 36.1367C91.8216 36.1367 91.2223 35.9316 90.7529 35.5215C90.2881 35.1068 90.0557 34.5827 90.0557 33.9492C90.0557 33.179 90.3473 32.582 90.9307 32.1582C91.5186 31.7298 92.3434 31.5156 93.4053 31.5156H94.6357V30.9346C94.6357 30.4925 94.5036 30.1416 94.2393 29.8818C93.9749 29.6175 93.5853 29.4854 93.0703 29.4854C92.6191 29.4854 92.2409 29.5993 91.9355 29.8271C91.6302 30.055 91.4775 30.3307 91.4775 30.6543H90.2061C90.2061 30.2852 90.3359 29.9297 90.5957 29.5879C90.86 29.2415 91.2155 28.9681 91.6621 28.7676C92.1133 28.5671 92.6077 28.4668 93.1455 28.4668C93.9977 28.4668 94.6654 28.681 95.1484 29.1094C95.6315 29.5332 95.8822 30.1188 95.9004 30.8662V34.2705C95.9004 34.9495 95.987 35.4896 96.1602 35.8906V36H94.834ZM92.7354 35.0361C93.1318 35.0361 93.5078 34.9336 93.8633 34.7285C94.2188 34.5234 94.4762 34.2568 94.6357 33.9287V32.4111H93.6445C92.0951 32.4111 91.3203 32.8646 91.3203 33.7715C91.3203 34.168 91.4525 34.4779 91.7168 34.7012C91.9811 34.9245 92.3206 35.0361 92.7354 35.0361ZM102.189 34.0381C102.189 33.6963 102.06 33.432 101.8 33.2451C101.545 33.0537 101.096 32.8896 100.453 32.7529C99.8151 32.6162 99.307 32.4521 98.9287 32.2607C98.555 32.0693 98.277 31.8415 98.0947 31.5771C97.917 31.3128 97.8281 30.9984 97.8281 30.6338C97.8281 30.0277 98.0833 29.515 98.5938 29.0957C99.1087 28.6764 99.765 28.4668 100.562 28.4668C101.401 28.4668 102.08 28.6833 102.6 29.1162C103.124 29.5492 103.386 30.1029 103.386 30.7773H102.114C102.114 30.431 101.966 30.1325 101.67 29.8818C101.378 29.6312 101.009 29.5059 100.562 29.5059C100.102 29.5059 99.7422 29.6061 99.4824 29.8066C99.2227 30.0072 99.0928 30.2692 99.0928 30.5928C99.0928 30.8981 99.2135 31.1283 99.4551 31.2832C99.6966 31.4382 100.132 31.5863 100.761 31.7275C101.394 31.8688 101.907 32.0374 102.299 32.2334C102.691 32.4294 102.98 32.6663 103.167 32.9443C103.358 33.2178 103.454 33.5527 103.454 33.9492C103.454 34.61 103.19 35.141 102.661 35.542C102.132 35.9385 101.447 36.1367 100.604 36.1367C100.011 36.1367 99.487 36.0319 99.0312 35.8223C98.5755 35.6126 98.2178 35.321 97.958 34.9473C97.7028 34.569 97.5752 34.1611 97.5752 33.7236H98.8398C98.8626 34.1475 99.0312 34.4847 99.3457 34.7354C99.6647 34.9814 100.084 35.1045 100.604 35.1045C101.082 35.1045 101.465 35.0088 101.752 34.8174C102.044 34.6214 102.189 34.3617 102.189 34.0381ZM108.171 36.1367C107.168 36.1367 106.353 35.8086 105.724 35.1523C105.095 34.4915 104.78 33.6097 104.78 32.5068V32.2744C104.78 31.5407 104.919 30.8867 105.197 30.3125C105.48 29.7337 105.872 29.2826 106.373 28.959C106.879 28.6309 107.426 28.4668 108.014 28.4668C108.975 28.4668 109.723 28.7835 110.256 29.417C110.789 30.0505 111.056 30.9574 111.056 32.1377V32.6641H106.045C106.063 33.3932 106.275 33.9834 106.681 34.4346C107.091 34.8812 107.61 35.1045 108.239 35.1045C108.686 35.1045 109.064 35.0133 109.374 34.8311C109.684 34.6488 109.955 34.4072 110.188 34.1064L110.96 34.708C110.34 35.6605 109.41 36.1367 108.171 36.1367ZM108.014 29.5059C107.503 29.5059 107.075 29.6927 106.729 30.0664C106.382 30.4355 106.168 30.9551 106.086 31.625H109.791V31.5293C109.755 30.8867 109.581 30.39 109.271 30.0391C108.962 29.6836 108.542 29.5059 108.014 29.5059Z" fill="white"/>
</svg>