<svg width="41" height="41" viewBox="0 0 41 41" fill="none" xmlns="http://www.w3.org/2000/svg">
<path d="M20.5 0C9.19139 0 0 9.19139 0 20.5C0 31.8086 9.19139 41 20.5 41C31.8086 41 41 31.8086 41 20.5C41 9.19139 31.7986 0 20.5 0ZM31.9591 15.1016L18.8544 28.106C18.0817 28.8786 16.8475 28.9288 16.0247 28.1561L9.09104 21.8346C8.26823 21.0619 8.21806 19.7775 8.94053 18.9547C9.71317 18.1319 10.9976 18.0817 11.8204 18.8544L17.3191 23.8916L29.0291 12.1816C29.8519 11.3588 31.1363 11.3588 31.9591 12.1816C32.7819 12.9944 32.7819 14.2788 31.9591 15.1016Z" fill="white"/>
</svg>