<svg width="174" height="47" viewBox="0 0 174 47" fill="none" xmlns="http://www.w3.org/2000/svg">
<rect width="174" height="47" rx="5" fill="black"/>
<path d="M54.0713 28H52.752V23.3994H47.7344V28H46.4219V18.0469H47.7344V22.3262H52.752V18.0469H54.0713V28ZM63.4092 18.0469V24.8145C63.4046 25.7533 63.1084 26.5212 62.5205 27.1182C61.9372 27.7152 61.1442 28.0501 60.1416 28.123L59.793 28.1367C58.7038 28.1367 57.8356 27.8428 57.1885 27.2549C56.5413 26.667 56.2132 25.8581 56.2041 24.8281V18.0469H57.5029V24.7871C57.5029 25.5072 57.7012 26.0677 58.0977 26.4688C58.4941 26.8652 59.0592 27.0635 59.793 27.0635C60.5358 27.0635 61.1032 26.8652 61.4951 26.4688C61.8916 26.0723 62.0898 25.514 62.0898 24.7939V18.0469H63.4092ZM73.1367 23.3447C73.1367 24.32 72.9727 25.1722 72.6445 25.9014C72.3164 26.626 71.8516 27.1797 71.25 27.5625C70.6484 27.9453 69.9466 28.1367 69.1445 28.1367C68.3607 28.1367 67.6657 27.9453 67.0596 27.5625C66.4535 27.1751 65.9818 26.626 65.6445 25.915C65.3118 25.1995 65.141 24.3724 65.1318 23.4336V22.7158C65.1318 21.7588 65.2982 20.9134 65.6309 20.1797C65.9635 19.446 66.4329 18.8854 67.0391 18.498C67.6497 18.1061 68.347 17.9102 69.1309 17.9102C69.9284 17.9102 70.6302 18.1038 71.2363 18.4912C71.847 18.874 72.3164 19.4323 72.6445 20.166C72.9727 20.8952 73.1367 21.7451 73.1367 22.7158V23.3447ZM71.8311 22.7021C71.8311 21.5218 71.5941 20.6172 71.1201 19.9883C70.6462 19.3548 69.9831 19.0381 69.1309 19.0381C68.3014 19.0381 67.6475 19.3548 67.1689 19.9883C66.695 20.6172 66.4512 21.4922 66.4375 22.6133V23.3447C66.4375 24.4886 66.6768 25.3887 67.1553 26.0449C67.6383 26.6966 68.3014 27.0225 69.1445 27.0225C69.9922 27.0225 70.6484 26.7148 71.1133 26.0996C71.5781 25.4798 71.8174 24.5934 71.8311 23.4404V22.7021ZM81.8252 21.8613L84.2109 18.0469H85.7559L82.6113 22.9824L85.8311 28H84.2725L81.8252 24.1172L79.3643 28H77.8125L81.0391 22.9824L77.8877 18.0469H79.4258L81.8252 21.8613ZM88.7637 28H87.4512V18.0469H88.7637V28ZM98.8193 28H97.5L92.4893 20.3301V28H91.1699V18.0469H92.4893L97.5137 25.751V18.0469H98.8193V28ZM108.499 26.6943C108.162 27.1774 107.69 27.5397 107.084 27.7812C106.482 28.0182 105.781 28.1367 104.979 28.1367C104.167 28.1367 103.447 27.9476 102.818 27.5693C102.189 27.1865 101.702 26.6442 101.355 25.9424C101.014 25.2406 100.838 24.4271 100.829 23.502V22.6338C100.829 21.1344 101.178 19.9723 101.875 19.1475C102.577 18.3226 103.561 17.9102 104.828 17.9102C105.867 17.9102 106.703 18.1768 107.337 18.71C107.97 19.2386 108.358 19.9906 108.499 20.9658H107.187C106.94 19.6488 106.157 18.9902 104.835 18.9902C103.955 18.9902 103.288 19.3001 102.832 19.9199C102.381 20.5352 102.153 21.4284 102.148 22.5996V23.4131C102.148 24.5296 102.404 25.4183 102.914 26.0791C103.424 26.7354 104.115 27.0635 104.985 27.0635C105.478 27.0635 105.908 27.0088 106.277 26.8994C106.646 26.79 106.952 26.6055 107.193 26.3457V24.1104H104.89V23.0439H108.499V26.6943ZM120.359 28H113.838V27.0908L117.283 23.2627C117.794 22.6839 118.145 22.2145 118.336 21.8545C118.532 21.4899 118.63 21.1139 118.63 20.7266C118.63 20.207 118.473 19.7809 118.158 19.4482C117.844 19.1156 117.424 18.9492 116.9 18.9492C116.271 18.9492 115.782 19.1292 115.431 19.4893C115.084 19.8447 114.911 20.3415 114.911 20.9795H113.646C113.646 20.0635 113.94 19.3229 114.528 18.7578C115.121 18.1927 115.911 17.9102 116.9 17.9102C117.826 17.9102 118.557 18.154 119.095 18.6416C119.632 19.1247 119.901 19.7695 119.901 20.5762C119.901 21.556 119.277 22.7227 118.028 24.0762L115.362 26.9678H120.359V28ZM127.038 24.6572H128.419V25.6895H127.038V28H125.767V25.6895H121.234V24.9443L125.691 18.0469H127.038V24.6572ZM122.67 24.6572H125.767V19.7764L125.616 20.0498L122.67 24.6572Z" fill="white"/>
</svg>