<svg width="174" height="47" viewBox="0 0 174 47" fill="none" xmlns="http://www.w3.org/2000/svg">
<rect width="174" height="47" rx="5" fill="black"/>
<path d="M71.2051 18.0469H72.5244V25.0947C72.5244 26.0472 72.2373 26.7923 71.6631 27.3301C71.0934 27.8678 70.3324 28.1367 69.3799 28.1367C68.391 28.1367 67.6208 27.8838 67.0693 27.3779C66.5179 26.8721 66.2422 26.1634 66.2422 25.252H67.5547C67.5547 25.8216 67.7096 26.266 68.0195 26.585C68.334 26.904 68.7874 27.0635 69.3799 27.0635C69.9222 27.0635 70.3597 26.8926 70.6924 26.5508C71.0296 26.209 71.2005 25.7305 71.2051 25.1152V18.0469ZM76.168 28H74.8555V18.0469H76.168V28ZM86.2236 28H84.9043L79.8936 20.3301V28H78.5742V18.0469H79.8936L84.918 25.751V18.0469H86.2236V28ZM91.4873 23.5635C90.3617 23.2399 89.5413 22.8434 89.0264 22.374C88.516 21.9001 88.2607 21.3167 88.2607 20.624C88.2607 19.8402 88.5729 19.193 89.1973 18.6826C89.8262 18.1676 90.6419 17.9102 91.6445 17.9102C92.3281 17.9102 92.9365 18.0423 93.4697 18.3066C94.0075 18.571 94.4222 18.9355 94.7139 19.4004C95.0101 19.8652 95.1582 20.3734 95.1582 20.9248H93.8389C93.8389 20.3232 93.6475 19.8516 93.2646 19.5098C92.8818 19.1634 92.3418 18.9902 91.6445 18.9902C90.9974 18.9902 90.4915 19.1338 90.127 19.4209C89.7669 19.7035 89.5869 20.0977 89.5869 20.6035C89.5869 21.0091 89.7578 21.3532 90.0996 21.6357C90.446 21.9137 91.0316 22.1689 91.8564 22.4014C92.6859 22.6338 93.333 22.8913 93.7979 23.1738C94.2673 23.4518 94.6136 23.7777 94.8369 24.1514C95.0648 24.5251 95.1787 24.9648 95.1787 25.4707C95.1787 26.2773 94.8643 26.9245 94.2354 27.4121C93.6064 27.8952 92.7656 28.1367 91.7129 28.1367C91.0293 28.1367 90.3913 28.0068 89.7988 27.7471C89.2064 27.4827 88.7484 27.1227 88.4248 26.667C88.1058 26.2113 87.9463 25.694 87.9463 25.1152H89.2656C89.2656 25.7168 89.4867 26.193 89.9287 26.5439C90.3753 26.8903 90.9701 27.0635 91.7129 27.0635C92.4056 27.0635 92.9365 26.9222 93.3057 26.6396C93.6748 26.3571 93.8594 25.972 93.8594 25.4844C93.8594 24.9967 93.6885 24.6208 93.3467 24.3564C93.0049 24.0876 92.3851 23.8232 91.4873 23.5635ZM99.9023 23.0439L102.5 18.0469H103.99L100.559 24.2881V28H99.2461V24.2881L95.8145 18.0469H97.3184L99.9023 23.0439Z" fill="white"/>
</svg>