<?xml version="1.0" encoding="utf-8"?>
<!-- Generator: Adobe Illustrator 26.5.0, SVG Export Plug-In . SVG Version: 6.00 Build 0)  -->
<svg version="1.1" id="Layer_1" xmlns="http://www.w3.org/2000/svg" xmlns:xlink="http://www.w3.org/1999/xlink" x="0px" y="0px"
	 viewBox="0 0 1920 445" style="enable-background:new 0 0 1920 445;" xml:space="preserve">
<style type="text/css">
	.st0{fill:#FFFFFF;}
</style>
<g>
	<path class="st0" d="M759.2,146.4c11.4,7,21,16.6,27.1,29.7c7,13.1,10.5,28.8,10.5,46.3s-3.5,32.3-11.4,45.4
		c-7,13.1-17.5,22.7-30.6,28.8c-13.1,7-28.8,10.5-45.4,10.5c-9.6,0-18.3-1.7-27.1-5.2c-8.7-2.6-16.6-7.9-22.7-14v90.8h-50.7V139.4
		h43.7l4.4,19.2c19.2-15.7,40.2-23.6,62-23.6C733.8,135,747.8,138.5,759.2,146.4z M731.2,254.7c8.7-7.9,13.1-18.3,13.1-31.4
		s-4.4-23.6-12.2-32.3c-7.9-8.7-18.3-12.2-29.7-12.2c-9.6,0-18.3,1.7-25.3,6.1c-7,3.5-12.2,9.6-16.6,17.5v39.3
		c2.6,7.9,7.9,14,14,18.3c7,4.4,14.8,7,24.5,7C712,266.9,722.5,262.5,731.2,254.7z"/>
	<path class="st0" d="M826.4,176.9c7.9-12.2,18.3-22.7,32.3-29.7s29.7-11.4,47.2-11.4s33.2,3.5,47.2,11.4
		c13.1,7,23.6,17.5,31.4,30.6s11.4,27.1,11.4,43.7s-3.5,30.6-11.4,43.7s-17.5,23.6-31.4,30.6c-13.1,7-29.7,11.4-47.2,11.4
		s-33.2-3.5-47.2-10.5s-24.5-16.6-32.3-29.7c-7-13.1-11.4-28-11.4-45.4C815.1,204.9,819.4,190,826.4,176.9z M878,252.9
		c7,8.7,16.6,12.2,28,12.2s21-4.4,28-12.2c7-7.9,10.5-19.2,10.5-31.4c0-13.1-3.5-23.6-10.5-31.4c-7.9-8.7-16.6-13.1-28.8-13.1
		c-11.4,0-20.1,4.4-28,12.2c-7,8.7-10.5,19.2-10.5,32.3C866.6,233.7,870.1,244.2,878,252.9z"/>
	<path class="st0" d="M1078,15.3v287.4h-50.7V15.3H1078z"/>
	<path class="st0" d="M1285.9,143.7l-103.1,235.9h-48.9l38.4-84.7L1099,143.7h57.7l41.9,94.3l41.9-94.3H1285.9z"/>
	<path class="st0" d="M1479.8,143.7v159c0,14.8-4.4,28.8-13.1,41.1c-8.7,12.2-20.1,21.8-34.9,28.8s-30.6,10.5-48,10.5
		c-13.1,0-24.5-1.7-34.1-4.4c-9.6-3.5-17.5-7-23.6-10.5c-7-4.4-14-9.6-21.8-16.6l29.7-34.9c7,7,14.8,12.2,21.8,15.7
		s16.6,6.1,27.1,6.1c13.1,0,23.6-3.5,32.3-9.6c8.7-6.1,13.1-15.7,13.1-27.1v-22.7c-5.2,7.9-12.2,14.8-22.7,20.1
		c-10.5,5.2-22.7,7.9-36.7,7.9s-28-3.5-40.2-11.4c-12.2-7-21.8-17.5-29.7-30.6c-7-13.1-11.4-27.1-11.4-42.8s3.5-30.6,11.4-43.7
		c7.9-13.1,17.5-23.6,30.6-31.4c12.2-7.9,25.3-11.4,39.3-11.4c13.1,0,24.5,1.7,34.9,5.2s18.3,8.7,23.6,14.8l5.2-12.2L1479.8,143.7
		L1479.8,143.7z M1428.3,241.6v-39.3c-3.5-7.9-8.7-14-16.6-18.3c-7.9-4.4-16.6-7-27.1-7c-12.2,0-22.7,4.4-31.4,12.2
		s-13.1,18.3-13.1,31.4c0,12.2,4.4,23.6,13.1,32.3c8.7,8.7,19.2,13.1,31.4,13.1C1404.7,265.2,1419.5,257.3,1428.3,241.6z"/>
	<path class="st0" d="M1521.7,176.9c7.9-13.1,18.3-22.7,32.3-30.6c14-7,29.7-11.4,47.2-11.4s33.2,3.5,47.2,11.4
		c13.1,7,23.6,17.5,31.4,30.6c7,13.1,11.4,27.1,11.4,43.7s-3.5,30.6-11.4,43.7c-7,13.1-17.5,23.6-31.4,30.6
		c-13.1,7-29.7,11.4-47.2,11.4s-33.2-3.5-47.2-10.5s-24.5-16.6-32.3-29.7c-7.9-13.1-11.4-28-11.4-46.3
		C1510.4,204.9,1513.9,190,1521.7,176.9z M1572.4,252.9c7,8.7,16.6,12.2,28,12.2s21-4.4,28-12.2c7-7.9,10.5-19.2,10.5-31.4
		c0-13.1-3.5-23.6-10.5-31.4c-7-7.9-16.6-12.2-28-12.2s-20.1,4.4-28,12.2c-7.9,7.9-11.4,19.2-11.4,31.4
		C1561.9,233.7,1565.4,244.2,1572.4,252.9z"/>
	<path class="st0" d="M1870.3,149c10.5,8.7,14.8,20.1,15.7,34.1v119.7h-51.5V202.3c-0.9-15.7-8.7-23.6-23.6-23.6
		c-11.4,0-21,5.2-28,16.6c-7,11.4-10.5,25.3-10.5,41.9v65.5h-50.7v-159h46.3l3.5,25.3c6.1-10.5,14-18.3,24.5-24.5
		c10.5-6.1,22.7-8.7,36.7-8.7C1847.6,135.9,1860.7,140.2,1870.3,149z"/>
</g>
<path class="st0" d="M392.3,141.1c-8.7-5.2-20.1-5.2-29.7,0l-68.1,40.2l-46.3,26.2L180,247.7c-8.7,5.2-20.1,5.2-29.7,0l-54.2-31.4
	c-8.7-5.2-14.8-14.8-14.8-25.3v-62c0-10.5,5.2-20.1,14.8-25.3L149.4,73c8.7-5.2,20.1-5.2,29.7,0l53.3,30.6
	c8.7,5.2,14.8,14.8,14.8,25.3v40.2l46.3-27.1v-40.2c0-10.5-5.2-20.1-14.8-25.3L180,18.8c-8.7-5.2-20.1-5.2-29.7,0L49.8,76.5
	C40.2,81.7,35,91.3,35,101.8V218c0,10.5,5.2,20.1,14.8,25.3L150.3,301c8.7,5.2,20.1,5.2,29.7,0l68.1-39.3l46.3-27.1l68.1-39.3
	c8.7-5.2,20.1-5.2,29.7,0l53.3,30.6c8.7,5.2,14.8,14.8,14.8,25.3v62c0,10.5-5.2,20.1-14.8,25.3L392.3,370c-8.7,5.2-20.1,5.2-29.7,0
	l-53.3-30.6c-8.7-5.2-14.8-14.8-14.8-25.3v-40.2L248.1,301v40.2c0,10.5,5.2,20.1,14.8,25.3l100.5,57.7c8.7,5.2,20.1,5.2,29.7,0
	l100.5-57.7c8.7-5.2,14.8-14.8,14.8-25.3V225c0-10.5-5.2-20.1-14.8-25.3L392.3,141.1z"/>
</svg>
